<mxfile host="65bd71144e">
    <diagram name="Page-1" id="hAl-vZIji8fCBUIqCB0W">
        <mxGraphModel dx="868" dy="800" grid="1" gridSize="10" guides="1" tooltips="1" connect="1" arrows="1" fold="1" page="1" pageScale="1" pageWidth="827" pageHeight="1169" math="0" shadow="0">
            <root>
                <mxCell id="0"/>
                <mxCell id="1" parent="0"/>
                <mxCell id="RY5btmxA9cAQ1VW_oMe2-14" value="Connexion" style="html=1;whiteSpace=wrap;" parent="1" vertex="1">
                    <mxGeometry x="420" y="105" width="110" height="50" as="geometry"/>
                </mxCell>
                <mxCell id="RY5btmxA9cAQ1VW_oMe2-16" value="" style="group;fillStyle=solid;" parent="1" vertex="1" connectable="0">
                    <mxGeometry x="220" y="100" width="110" height="60" as="geometry"/>
                </mxCell>
                <mxCell id="RY5btmxA9cAQ1VW_oMe2-13" value="Accueil" style="html=1;whiteSpace=wrap;" parent="RY5btmxA9cAQ1VW_oMe2-16" vertex="1">
                    <mxGeometry width="110" height="60" as="geometry"/>
                </mxCell>
                <mxCell id="RY5btmxA9cAQ1VW_oMe2-17" value="Inscription" style="html=1;whiteSpace=wrap;" parent="1" vertex="1">
                    <mxGeometry x="550" y="105" width="110" height="50" as="geometry"/>
                </mxCell>
                <mxCell id="RY5btmxA9cAQ1VW_oMe2-18" value="" style="group" parent="1" vertex="1" connectable="0">
                    <mxGeometry x="220" y="240" width="110" height="60" as="geometry"/>
                </mxCell>
                <mxCell id="RY5btmxA9cAQ1VW_oMe2-19" value="Détail d'un film" style="html=1;whiteSpace=wrap;" parent="RY5btmxA9cAQ1VW_oMe2-18" vertex="1">
                    <mxGeometry width="110" height="60" as="geometry"/>
                </mxCell>
                <mxCell id="RY5btmxA9cAQ1VW_oMe2-20" style="edgeStyle=orthogonalEdgeStyle;rounded=0;orthogonalLoop=1;jettySize=auto;html=1;entryX=0.5;entryY=0;entryDx=0;entryDy=0;" parent="1" source="RY5btmxA9cAQ1VW_oMe2-13" target="RY5btmxA9cAQ1VW_oMe2-19" edge="1">
                    <mxGeometry relative="1" as="geometry"/>
                </mxCell>
                <mxCell id="RY5btmxA9cAQ1VW_oMe2-21" value="Clic sur un film" style="edgeLabel;html=1;align=center;verticalAlign=middle;resizable=0;points=[];" parent="RY5btmxA9cAQ1VW_oMe2-20" vertex="1" connectable="0">
                    <mxGeometry x="-0.342" y="1" relative="1" as="geometry">
                        <mxPoint x="-1" y="13" as="offset"/>
                    </mxGeometry>
                </mxCell>
                <mxCell id="RY5btmxA9cAQ1VW_oMe2-22" value="" style="group;dashed=1;" parent="1" vertex="1" connectable="0">
                    <mxGeometry x="220" y="370" width="110" height="60" as="geometry"/>
                </mxCell>
                <mxCell id="RY5btmxA9cAQ1VW_oMe2-23" value="Réservation (modal)" style="html=1;whiteSpace=wrap;" parent="RY5btmxA9cAQ1VW_oMe2-22" vertex="1">
                    <mxGeometry width="110" height="60" as="geometry"/>
                </mxCell>
                <mxCell id="RY5btmxA9cAQ1VW_oMe2-24" style="edgeStyle=orthogonalEdgeStyle;rounded=0;orthogonalLoop=1;jettySize=auto;html=1;" parent="1" source="RY5btmxA9cAQ1VW_oMe2-19" target="RY5btmxA9cAQ1VW_oMe2-23" edge="1">
                    <mxGeometry relative="1" as="geometry"/>
                </mxCell>
                <mxCell id="RY5btmxA9cAQ1VW_oMe2-25" value="Clic sur une séance" style="edgeLabel;html=1;align=center;verticalAlign=middle;resizable=0;points=[];" parent="RY5btmxA9cAQ1VW_oMe2-24" vertex="1" connectable="0">
                    <mxGeometry x="-0.1678" y="-2" relative="1" as="geometry">
                        <mxPoint as="offset"/>
                    </mxGeometry>
                </mxCell>
                <mxCell id="RY5btmxA9cAQ1VW_oMe2-27" value="Paiement" style="html=1;whiteSpace=wrap;dashed=1;" parent="1" vertex="1">
                    <mxGeometry x="390" y="370" width="110" height="60" as="geometry"/>
                </mxCell>
                <mxCell id="RY5btmxA9cAQ1VW_oMe2-35" style="edgeStyle=orthogonalEdgeStyle;rounded=0;orthogonalLoop=1;jettySize=auto;html=1;entryX=0.5;entryY=0;entryDx=0;entryDy=0;" parent="1" source="RY5btmxA9cAQ1VW_oMe2-31" target="RY5btmxA9cAQ1VW_oMe2-14" edge="1">
                    <mxGeometry relative="1" as="geometry">
                        <Array as="points">
                            <mxPoint x="600" y="80"/>
                            <mxPoint x="475" y="80"/>
                        </Array>
                    </mxGeometry>
                </mxCell>
                <mxCell id="RY5btmxA9cAQ1VW_oMe2-36" style="edgeStyle=orthogonalEdgeStyle;rounded=0;orthogonalLoop=1;jettySize=auto;html=1;" parent="1" source="RY5btmxA9cAQ1VW_oMe2-31" edge="1">
                    <mxGeometry relative="1" as="geometry">
                        <mxPoint x="600" y="105" as="targetPoint"/>
                        <Array as="points">
                            <mxPoint x="600" y="105"/>
                        </Array>
                    </mxGeometry>
                </mxCell>
                <mxCell id="RY5btmxA9cAQ1VW_oMe2-37" style="edgeStyle=orthogonalEdgeStyle;rounded=0;orthogonalLoop=1;jettySize=auto;html=1;entryX=0.5;entryY=0;entryDx=0;entryDy=0;" parent="1" edge="1">
                    <mxGeometry relative="1" as="geometry">
                        <mxPoint x="600" y="50" as="sourcePoint"/>
                        <mxPoint x="725" y="105" as="targetPoint"/>
                        <Array as="points">
                            <mxPoint x="600" y="80"/>
                            <mxPoint x="725" y="80"/>
                        </Array>
                    </mxGeometry>
                </mxCell>
                <mxCell id="RY5btmxA9cAQ1VW_oMe2-31" value="Navbar" style="shape=hexagon;perimeter=hexagonPerimeter2;whiteSpace=wrap;html=1;fixedSize=1;" parent="1" vertex="1">
                    <mxGeometry x="540" y="10" width="120" height="40" as="geometry"/>
                </mxCell>
                <mxCell id="RY5btmxA9cAQ1VW_oMe2-38" style="edgeStyle=orthogonalEdgeStyle;rounded=0;orthogonalLoop=1;jettySize=auto;html=1;entryX=0.5;entryY=0;entryDx=0;entryDy=0;" parent="1" source="RY5btmxA9cAQ1VW_oMe2-32" target="RY5btmxA9cAQ1VW_oMe2-34" edge="1">
                    <mxGeometry relative="1" as="geometry">
                        <Array as="points">
                            <mxPoint x="735" y="200"/>
                            <mxPoint x="475" y="200"/>
                        </Array>
                    </mxGeometry>
                </mxCell>
                <mxCell id="5" style="edgeStyle=none;html=1;rounded=0;entryX=0.5;entryY=0;entryDx=0;entryDy=0;" edge="1" parent="1" source="RY5btmxA9cAQ1VW_oMe2-32" target="6">
                    <mxGeometry relative="1" as="geometry">
                        <mxPoint x="800" y="240" as="targetPoint"/>
                        <Array as="points">
                            <mxPoint x="735" y="200"/>
                            <mxPoint x="605" y="200"/>
                        </Array>
                    </mxGeometry>
                </mxCell>
                <mxCell id="9" style="edgeStyle=orthogonalEdgeStyle;rounded=0;html=1;entryX=0.5;entryY=0;entryDx=0;entryDy=0;" edge="1" parent="1" source="RY5btmxA9cAQ1VW_oMe2-32" target="4">
                    <mxGeometry relative="1" as="geometry"/>
                </mxCell>
                <mxCell id="RY5btmxA9cAQ1VW_oMe2-32" value="Profil" style="html=1;whiteSpace=wrap;" parent="1" vertex="1">
                    <mxGeometry x="680" y="105" width="110" height="50" as="geometry"/>
                </mxCell>
                <mxCell id="RY5btmxA9cAQ1VW_oMe2-34" value="Modifier profil" style="html=1;whiteSpace=wrap;" parent="1" vertex="1">
                    <mxGeometry x="420" y="240" width="110" height="50" as="geometry"/>
                </mxCell>
                <mxCell id="4" value="Se déconnecter" style="html=1;whiteSpace=wrap;" vertex="1" parent="1">
                    <mxGeometry x="680" y="240" width="110" height="50" as="geometry"/>
                </mxCell>
                <mxCell id="6" value="Dashboard" style="html=1;whiteSpace=wrap;" vertex="1" parent="1">
                    <mxGeometry x="550" y="240" width="110" height="50" as="geometry"/>
                </mxCell>
                <mxCell id="7" style="edgeStyle=orthogonalEdgeStyle;rounded=0;html=1;entryX=0;entryY=0.5;entryDx=0;entryDy=0;dashed=1;" edge="1" parent="1" source="RY5btmxA9cAQ1VW_oMe2-23" target="RY5btmxA9cAQ1VW_oMe2-27">
                    <mxGeometry relative="1" as="geometry"/>
                </mxCell>
                <mxCell id="10" value="&lt;font style=&quot;font-size: 10px;&quot;&gt;- Modifier les films&amp;nbsp;&lt;br&gt;- Modifier&amp;nbsp; les séances&lt;br&gt;- Lister les réservations&lt;br&gt;&lt;/font&gt;" style="text;html=1;strokeColor=none;fillColor=none;align=center;verticalAlign=middle;whiteSpace=wrap;rounded=0;" vertex="1" parent="1">
                    <mxGeometry x="550" y="306" width="110" height="30" as="geometry"/>
                </mxCell>
            </root>
        </mxGraphModel>
    </diagram>
</mxfile>